<svg width="28" height="27" viewBox="0 0 28 27" fill="none" xmlns="http://www.w3.org/2000/svg">
<path d="M19.2903 26.3849V16.6926H22.2433L22.7581 12.3849H19.2903V9.98501C19.2903 8.85586 19.218 8.08586 20.8759 8.08586L22.5972 8.08478V4.59609C22.046 4.5487 21.2265 4.44263 19.7664 4.44263C16.718 4.44263 14.881 6.26047 14.881 9.59893V12.3849H11.0229V16.6926H14.881V26.3849H19.2903Z" fill="#F25567"/>
<path d="M23.6996 26.9231H3.85807C1.73117 26.9231 0 25.2318 0 23.1538V3.76923C0 1.69131 1.73117 0 3.85807 0H23.6996C25.8265 0 27.5577 1.69131 27.5577 3.76923V23.1538C27.5577 25.2318 25.8265 26.9231 23.6996 26.9231ZM3.85807 1.07692C2.33854 1.07692 1.10231 2.28469 1.10231 3.76923V23.1538C1.10231 24.6384 2.33854 25.8461 3.85807 25.8461H23.6996C25.2191 25.8461 26.4554 24.6384 26.4554 23.1538V3.76923C26.4554 2.28469 25.2191 1.07692 23.6996 1.07692H3.85807Z" fill="#F25567"/>
</svg>
