<svg width="42" height="76" viewBox="0 0 42 76" fill="none" xmlns="http://www.w3.org/2000/svg">
<rect x="1" y="1" width="39.2086" height="73.6472" rx="6" stroke="#1D870C" stroke-width="2"/>
<ellipse cx="17.4368" cy="4.4453" rx="0.861079" ry="0.865099" fill="#1D870C"/>
<rect x="19.5684" y="3.5802" width="4.87717" height="1.22336" fill="#1D870C"/>
<rect x="7.15796" y="14.5906" width="4.87717" height="1.22336" fill="#1D870C"/>
<rect x="9.59644" y="17.0375" width="4.87717" height="1.22336" fill="#1D870C"/>
<rect x="19.3506" y="17.0375" width="15.8508" height="1.22336" fill="#1D870C"/>
<rect x="7.15796" y="19.4841" width="4.87717" height="1.22336" fill="#1D870C"/>
<rect x="30.3245" y="25.6006" width="4.87717" height="1.22336" fill="#1D870C"/>
<rect x="27.8857" y="28.0474" width="4.87717" height="1.22336" fill="#1D870C"/>
<rect x="7.15796" y="28.0474" width="15.8508" height="1.22336" fill="#1D870C"/>
<rect x="10.2444" y="43.887" width="20.728" height="1.22336" fill="#1D870C"/>
<rect x="11.4636" y="47.5825" width="18.2894" height="1.22336" fill="#1D870C"/>
<rect x="10.2444" y="51.2784" width="20.728" height="1.22336" fill="#1D870C"/>
<rect x="11.3958" y="54.6277" width="18.2894" height="1.22336" fill="#1D870C"/>
<rect x="12.5469" y="58.3234" width="15.8508" height="1.22336" fill="#1D870C"/>
<rect x="18.1868" y="36.842" width="4.87717" height="4.89344" fill="#1D870C"/>
<rect x="18.1868" y="67.9093" width="4.87717" height="4.89344" rx="2.43858" fill="#1D870C"/>
<rect y="64.5598" width="41.2086" height="1.61689" fill="#1D870C"/>
<rect x="1.26587" y="7.73804" width="39.9425" height="1.27041" fill="#1D870C"/>
<rect x="30.3245" y="30.4941" width="4.87717" height="1.22336" fill="#1D870C"/>
</svg>
