<svg width="75" height="81" viewBox="0 0 75 81" fill="none" xmlns="http://www.w3.org/2000/svg">
<path d="M25.4061 55.1671C25.4061 52.8524 27.2826 50.9759 29.5973 50.9759C31.9121 50.9759 33.7886 52.8524 33.7886 55.1671V77.8192H25.4061V55.1671Z" stroke="#0079D0" stroke-width="1.5"/>
<path d="M41.734 40.361C41.734 38.0463 43.6105 36.1698 45.9252 36.1698C48.24 36.1698 50.1165 38.0463 50.1165 40.361V77.8193H41.734V40.361Z" stroke="#0079D0" stroke-width="1.5"/>
<path d="M58.0613 25.5547C58.0613 23.2399 59.9378 21.3635 62.2525 21.3635C64.5672 21.3635 66.4437 23.2399 66.4437 25.5547V77.8192H58.0613V25.5547Z" stroke="#0079D0" stroke-width="1.5"/>
<path d="M9.07898 64.8968C9.07898 62.582 10.9555 60.7056 13.2702 60.7056C15.5849 60.7056 17.4614 62.582 17.4614 64.8968V77.8191H9.07898V64.8968Z" stroke="#0079D0" stroke-width="1.5"/>
<path d="M7.53752 45.1496L17.1651 30.4773C18.0863 29.0734 19.654 28.2283 21.337 28.2283L35.4993 28.2283C36.8113 28.2283 38.0691 27.7136 39.002 26.7952L46.9992 18.9215L56.452 9.61476" stroke="#0079D0" stroke-width="1.5"/>
<path d="M56.5734 9.7608L49.4809 8.73674L64.5668 1.99996L57.7467 15.7913L56.5734 9.7608Z" fill="#0079D0" stroke="#0079D0" stroke-width="1.5"/>
<rect y="75.9371" width="75" height="4.94235" rx="2.47117" fill="#0079D0"/>
</svg>
