<svg width="86" height="78" viewBox="0 0 86 78" fill="none" xmlns="http://www.w3.org/2000/svg">
<rect x="3.30933" y="30.6932" width="65.4605" height="1.04934" fill="#9737E3"/>
<ellipse cx="36.0406" cy="33.6357" rx="1.17956" ry="1.18793" fill="#9737E3"/>
<rect x="4.33252" y="1" width="63.4657" height="35.9003" rx="3" stroke="#9737E3" stroke-width="2"/>
<path d="M19.8599 37.6221C24.2264 41.5107 23.4109 44.1519 19.8599 48.0405H52.1223C48.9287 44.0356 48.5128 41.3793 52.1223 37.6221" stroke="#9737E3" stroke-width="2"/>
<path d="M57.4179 51.4518H13.0073C12.2715 51.4518 11.5951 51.8558 11.2463 52.5036L12.1268 52.9777L11.2463 52.5036L1.91326 69.8366C1.19579 71.169 2.16087 72.7847 3.67421 72.7847H48.0849C48.8206 72.7847 49.497 72.3808 49.8458 71.7329L59.1789 54.4C59.8963 53.0675 58.9313 51.4518 57.4179 51.4518Z" stroke="#9737E3" stroke-width="2"/>
<path d="M67.9172 67.2212V68.2212H68.9172L83 68.2212H84.1373L83.9917 67.0933C83.3437 62.0702 79.3006 59.7182 75.5092 59.7988C73.6182 59.839 71.7293 60.478 70.2978 61.7331C68.8478 63.0045 67.9172 64.8674 67.9172 67.2212Z" stroke="#9737E3" stroke-width="2"/>
<path d="M75.4136 64.6981V60.6465H76.5658V64.6981H75.4136Z" fill="#9737E3" stroke="#9737E3" stroke-width="2"/>
<path d="M5.04517 77H42.726" stroke="#9737E3" stroke-width="2"/>
<path d="M54.3992 71.8806L61.4405 58.5773" stroke="#9737E3" stroke-width="2"/>
</svg>
