<svg width="29" height="28" viewBox="0 0 29 28" fill="none" xmlns="http://www.w3.org/2000/svg">
<path d="M20.9974 27.0403H7.76973C3.81906 27.0403 0.604736 23.9 0.604736 20.0403V7.11719C0.604736 3.25749 3.81906 0.117188 7.76973 0.117188H20.9974C24.9481 0.117188 28.1624 3.25749 28.1624 7.11719V20.0403C28.1624 23.9 24.9481 27.0403 20.9974 27.0403ZM7.76973 1.19411C4.42699 1.19411 1.70704 3.85142 1.70704 7.11719V20.0403C1.70704 23.306 4.42699 25.9633 7.76973 25.9633H20.9974C24.3402 25.9633 27.0601 23.306 27.0601 20.0403V7.11719C27.0601 3.85142 24.3402 1.19411 20.9974 1.19411H7.76973Z" fill="#F25567"/>
<path d="M14.3835 20.5791C10.4328 20.5791 7.21851 17.4388 7.21851 13.5791C7.21851 9.71941 10.4328 6.5791 14.3835 6.5791C18.3342 6.5791 21.5485 9.71941 21.5485 13.5791C21.5485 17.4388 18.3342 20.5791 14.3835 20.5791ZM14.3835 8.73295C11.6487 8.73295 9.42312 10.9073 9.42312 13.5791C9.42312 16.2515 11.6487 18.4253 14.3835 18.4253C17.1189 18.4253 19.3439 16.2515 19.3439 13.5791C19.3439 10.9073 17.1189 8.73295 14.3835 8.73295Z" fill="#F25567"/>
<path d="M22.0999 7.65582C23.0131 7.65582 23.7533 6.93259 23.7533 6.04043C23.7533 5.14828 23.0131 4.42505 22.0999 4.42505C21.1867 4.42505 20.4464 5.14828 20.4464 6.04043C20.4464 6.93259 21.1867 7.65582 22.0999 7.65582Z" fill="#F25567"/>
</svg>
