<svg width="29" height="27" viewBox="0 0 29 27" fill="none" xmlns="http://www.w3.org/2000/svg">
<path fill-rule="evenodd" clip-rule="evenodd" d="M9.08194 22.0766V10.2305H5.77502V22.0766H9.08194Z" fill="#F25567"/>
<path fill-rule="evenodd" clip-rule="evenodd" d="M7.62544 8.61535C9.00994 8.61535 9.87194 7.82166 9.87194 6.70166C9.84604 5.55689 9.00994 4.73682 7.6519 4.73682C6.2933 4.73682 5.4054 5.53105 5.4054 6.67582C5.4054 7.79582 6.26685 8.61535 7.59954 8.61535H7.62544Z" fill="#F25567"/>
<path fill-rule="evenodd" clip-rule="evenodd" d="M11.808 22.0766H15.6958V15.5672C15.6958 15.2182 15.7631 14.8699 15.8683 14.6205C16.1549 13.9232 16.9029 13.2017 17.9997 13.2017C19.4365 13.2017 20.1056 14.2722 20.1056 15.8407V22.0766H23.4125V15.3932C23.4125 11.8087 21.7122 10.2789 19.0992 10.2789C16.9574 10.2789 16.2751 11.3074 15.7526 12.3843H15.6958V10.2305H11.808C11.8604 11.3074 11.7115 22.0766 11.7115 22.0766H11.808Z" fill="#F25567"/>
<path d="M24.5143 26.9231H4.67277C2.54587 26.9231 0.814697 25.2318 0.814697 23.1538V3.76923C0.814697 1.69131 2.54587 0 4.67277 0H24.5143C26.6412 0 28.3724 1.69131 28.3724 3.76923V23.1538C28.3724 25.2318 26.6412 26.9231 24.5143 26.9231ZM4.67277 1.07692C3.15324 1.07692 1.917 2.28469 1.917 3.76923V23.1538C1.917 24.6384 3.15324 25.8461 4.67277 25.8461H24.5143C26.0338 25.8461 27.2701 24.6384 27.2701 23.1538V3.76923C27.2701 2.28469 26.0338 1.07692 24.5143 1.07692H4.67277Z" fill="#F25567"/>
</svg>
