<svg width="26" height="23" viewBox="0 0 26 23" fill="none" xmlns="http://www.w3.org/2000/svg">
<path d="M8.54152 21.1519C8.54152 21.6853 8.25192 22.0034 7.84127 22.0034C7.69648 22.0034 7.53507 21.9636 7.36416 21.8794L0.741542 18.5741C0.352256 18.3799 0.0341797 17.8653 0.0341797 17.4325V1.23081C0.0341797 0.80273 0.264428 0.55009 0.594373 0.55009C0.710684 0.55009 0.841237 0.580501 0.976538 0.64834L1.20916 0.765302H1.21153L8.51066 4.40752C8.52253 4.41454 8.53202 4.42624 8.54152 4.4356V21.1519ZM16.1896 1.57235L16.6358 0.849515C16.7949 0.592197 17.0868 0.444824 17.3835 0.444824C17.4524 0.444824 17.5236 0.454181 17.5924 0.472895C17.6446 0.484591 17.6992 0.503305 17.7562 0.531376L25.4541 4.37243C25.4565 4.37243 25.4565 4.37477 25.4565 4.37477L25.4636 4.37711C25.4684 4.37945 25.4684 4.38647 25.4731 4.38881C25.5111 4.41922 25.5277 4.47068 25.5016 4.51279L17.8345 16.9483L17.0512 18.2162L11.9715 8.41233L16.1896 1.57235ZM9.75685 14.5809V6.77017L15.214 17.3062L10.3052 14.857L9.75685 14.5809ZM25.5562 21.1519C25.5562 21.6525 25.2547 21.9379 24.8108 21.9379C24.6115 21.9379 24.3836 21.8818 24.1438 21.7625L23.0448 21.2127L18.136 18.7635L25.5562 6.7304V21.1519Z" fill="#F25567"/>
</svg>
