<svg width="29" height="28" viewBox="0 0 29 28" fill="none" xmlns="http://www.w3.org/2000/svg">
<path d="M11.1145 21.0018C17.7702 21.0018 21.41 15.6145 21.41 10.9433C21.41 10.7904 21.4067 10.638 21.3996 10.4862C22.1061 9.987 22.7201 9.36454 23.2046 8.65592C22.5564 8.93754 21.8587 9.12707 21.1267 9.21269C21.8736 8.77492 22.4473 8.08246 22.7179 7.257C22.0185 7.66192 21.2447 7.95646 20.4202 8.1153C19.7599 7.42823 18.8196 6.99854 17.779 6.99854C15.7806 6.99854 14.1602 8.58161 14.1602 10.5335C14.1602 10.8108 14.1921 11.0806 14.2539 11.3396C11.2468 11.1921 8.57974 9.78507 6.79566 7.6463C6.48481 8.16861 6.30568 8.77546 6.30568 9.42323C6.30568 10.6498 6.94447 11.7327 7.91615 12.3659C7.32256 12.3481 6.76479 12.1888 6.27702 11.9238C6.27647 11.9384 6.27647 11.9535 6.27647 11.9691C6.27647 13.6814 7.52373 15.1105 9.17939 15.4346C8.87571 15.5154 8.55549 15.559 8.22535 15.559C7.99221 15.559 7.76569 15.5364 7.54522 15.4955C8.00599 16.8998 9.34143 17.9218 10.9254 17.9508C9.68701 18.8991 8.12669 19.4639 6.43134 19.4639C6.13923 19.4639 5.85153 19.4478 5.56824 19.4149C7.16934 20.4165 9.07082 21.0018 11.1145 21.0018Z" fill="#F25567"/>
<path d="M14.3861 28C6.48425 28 0.0561523 21.7199 0.0561523 14C0.0561523 6.28008 6.48425 0 14.3861 0C22.288 0 28.7161 6.28008 28.7161 14C28.7161 21.7199 22.288 28 14.3861 28ZM14.3861 1.07692C7.09273 1.07692 1.15846 6.87454 1.15846 14C1.15846 21.1255 7.09273 26.9231 14.3861 26.9231C21.6796 26.9231 27.6138 21.1255 27.6138 14C27.6138 6.87454 21.6796 1.07692 14.3861 1.07692Z" fill="#F25567"/>
</svg>
